<?xml version="1.0" encoding="utf-8"?>
<!-- Generator: Adobe Illustrator 23.1.0, SVG Export Plug-In . SVG Version: 6.00 Build 0)  -->
<svg version="1.1" id="Layer_1" xmlns="http://www.w3.org/2000/svg" xmlns:xlink="http://www.w3.org/1999/xlink" x="0px" y="0px"
	 viewBox="0 0 770.4 1072.8" style="enable-background:new 0 0 770.4 1072.8;" xml:space="preserve">
<style type="text/css">
	.st0{fill:#803790;}
	.st1{fill:none;}
</style>
<g>
	<path class="st0" d="M432.8,434.2c-30.9,8.9-58.6,6-79.5,0.4c-36.2-9.7-59.8-29.5-60.8-30.4l19.4-22.9l-9.7,11.4l9.7-11.4
		c0.2,0.2,20.2,16.8,50.2,24.6c39,10.1,76.4,1.2,111.2-26.6l18.7,23.4C471.7,419,451.8,428.8,432.8,434.2z"/>
	<path class="st0" d="M463.3,580.1c-45.7,13.1-87.1,10.6-117.3,4.6c-46.7-9.3-77.1-28.4-78.4-29.2l16-25.3
		c0.2,0.1,27.8,17.3,69.3,25.4c54.9,10.7,107.4,1.3,156-27.9l15.4,25.7C503.5,565.8,483,574.4,463.3,580.1z"/>
	<path class="st0" d="M512.3,719.9c-24.4,7-49.6,11.8-75,14.4c-35.7,3.6-72.4,2.7-108.9-2.5c-62.4-8.9-102.8-27.6-104.5-28.3
		l14.7-31.7c0.4,0.2,38.4,17.5,96,25.6c52.7,7.4,133.2,8.3,217.6-28.9l14.2,32C548.6,708,530.7,714.6,512.3,719.9z"/>
	<polygon class="st1" points="112.7,1072.8 659.8,1072.8 399.5,166.7 	"/>
	<path class="st0" d="M399.5,166.7l260.3,906.1H691L422.1,137c-2.9-10-11.8-16.7-22.1-16.8c-10.3-0.1-19.4,6.4-22.5,16.2
		L81.2,1072.8h31.5L399.5,166.7z"/>
</g>
</svg>
