<?xml version="1.0" encoding="utf-8"?>
<!-- Generator: Adobe Illustrator 23.1.0, SVG Export Plug-In . SVG Version: 6.00 Build 0)  -->
<svg version="1.1" id="Layer_1" xmlns="http://www.w3.org/2000/svg" xmlns:xlink="http://www.w3.org/1999/xlink" x="0px" y="0px"
	 viewBox="0 0 1920 1080" style="enable-background:new 0 0 1920 1080;" xml:space="preserve">
<style type="text/css">
	.st0{fill:#FFFFFF;}
</style>
<g>
	<path class="st0" d="M1616.3,792.5h-5.9v111.8l-84-108V251.4c0.1-11.8-7.1-22.2-18.1-26.3c-11.1-4.2-23.3-1.1-31.1,7.7
		l-452.9,568.9c-9.7-5.4-22.1-8.3-36.7-8.3h-56.2v113.7l-21.5,24.5v11.2H900l-121.5,137.9l21.1,18.5l137.6-156.3h-2.7v-0.4h19v-51.6
		h34.1c2.5,0,5.2-0.2,7.4-0.3l32.5,50.9v1.2h26.9l-37.2-56.5c19.6-7.6,30.4-23.1,30.4-43.8c0-7.4-1.4-14.1-4-20L1225.3,594
		c11.5,7.9,34.1,21.6,67.5,33.9c34.9,12.8,87.5,26,156.1,26c15.7,0,32.2-0.7,49.5-2.2V1082h28V830.9l85.7,110.2l0.4,0.6h20.2V809
		C1632.8,799.9,1625.4,792.5,1616.3,792.5z M1014.4,883.9l-1.8,0.6l36.2,55.1h-18.9l-33.3-52.2l-0.9,0.1c-2.4,0.2-5.3,0.4-8.1,0.4
		h-37.1v51.6h-16v-35.9l-0.1,0.1V796.4h53.2c35.7,0,57,17.1,57,45.8C1044.6,862.2,1033.9,877,1014.4,883.9z M1498.2,251.3
		c0.1-0.1,0.2,0,0.3,0v0.1v175c-32.6,4.6-63,0.8-90.4-11.4c-12.1-5.4-21.3-11.4-27.5-16.1L1498.2,251.3z M1363.1,420.8
		c7.4,5.7,18.2,12.8,32.1,19.1c18,8.2,44.2,16.3,77.4,16.3c8.2,0,16.8-0.5,25.8-1.6v69.2h0.1c-52.4,6.9-100.5,0.5-143.3-18.9
		c-17.9-8.1-31.3-17.1-40.1-23.8L1363.1,420.8z M1498.5,623.4c-88.5,8.4-154.3-6.7-194.6-21.3c-30-10.9-50.5-23-61.1-30.1l54.9-68.9
		c10,7.8,24.9,17.7,44.5,26.7c26.5,12.2,65.9,24.6,117,24.6c12.4,0,25.5-0.7,39.3-2.4V623.4z M1629.8,938.7H1614L1526.4,826v-24.8
		l87,111.9V795.5h2.9c7.4,0,13.5,6.1,13.5,13.5V938.7z"/>
	<path class="st0" d="M228.7,915.6c-27.1,0-47.1-20.2-47.1-47.7c0-27.9,20.1-47.7,47.1-47.7c21.4,0,36.5,11.2,40,25.5h33.6
		c-6.1-31.4-33.4-56-74.3-56c-45.8,0-79.6,33-79.6,78.1c0,45.1,33.7,78.1,79.6,78.3c41.2,0,71.1-28.1,75.7-58h-33.6
		C267.6,901.5,250,915.6,228.7,915.6z"/>
	<path class="st0" d="M396.5,789.7c-46.2,0-80.3,33-80.3,78.1c0,45.1,34.1,78.1,80.3,78.1c46.2,0,80.3-33,80.3-78.1
		C476.8,822.7,442.7,789.7,396.5,789.7z M396.5,916c-27.1,0-47.1-20.3-47.1-48.2c0-28.2,20-48.2,47.1-48.2
		c27.1,0,47.1,20.1,47.1,48.2C443.6,895.8,423.5,916,396.5,916z"/>
	<path class="st0" d="M616.2,844.5c0-30.9-22-50.9-59.8-50.9h-59.8v148.7h33.2v-46.9h26.4l28.8,46.9l0,0h38.5L589,888.9
		C606.5,880.6,616.2,864.9,616.2,844.5z M554.8,866h-25.2v-43h25.2c17.6,0,28.1,7.5,28.1,21.5S572.3,866,554.8,866z"/>
	<path class="st0" d="M759,791.8h-18.2V883l-74.3-89.4h-27.7v148.8H657c8.3,0,15-6.7,15-15v-76.3l74.3,89.4H774V806.8
		C774,798.5,767.3,791.8,759,791.8z"/>
	<path class="st0" d="M1132.4,857.2c-32.9-7-43.5-13.5-43.5-26.8c0-12.8,13.5-21.1,34.5-21.1c20.7,0,35.4,10.2,37.4,26l0.2,1.3h22.6
		l-0.1-1.6c-1.9-26.5-26.1-45-58.9-45c-0.1,0-0.2,0-0.3,0c-34.5,0-57.7,16.3-57.7,40.6c0,23.7,15.2,37,51,44.6
		c33.2,7,43.9,13.8,43.9,28c0,13.6-14.8,23.1-35.9,23.1c-22.9,0-38.9-11.4-40.9-29l-0.2-1.3h-22.6l0.1,1.6c2,28.9,27,48.3,62.2,48.3
		c35.1,0,59.7-18.1,59.7-43.9C1183.9,878.7,1168,864.9,1132.4,857.2z M1124.2,942.9c-32.8,0-56.3-17.6-59.1-43.9h16.8
		c2.8,18.5,19.8,30.3,43.7,30.3c22.9,0,38.9-10.7,38.9-26.1c0-17.9-15.6-24.5-46.3-31c-34.5-7.3-48.6-19.4-48.6-41.6
		c0-22.5,22-37.6,54.7-37.6c0.1,0,0.2,0,0.3,0c30.5,0,53.2,16.6,55.8,40.6h-16.8c-2.8-16.6-18.4-27.3-40.2-27.3
		c-22.8,0-37.5,9.5-37.5,24.1c0,16.9,16.1,23.5,45.9,29.8c34,7.3,49.1,20.2,49.1,41.8C1180.9,926.1,1157.6,942.9,1124.2,942.9z"/>
	<path class="st0" d="M1194.6,813.5h52.5v129h22.1v-129h52.4v-20.1h-127V813.5z M1197.6,796.4h121v14.1h-52.4v129h-16.1v-129h-52.5
		V796.4z"/>
	<path class="st0" d="M1403.1,807.4c-34.4,0-59.3,25.4-59.3,60.4c0,35,25,60.4,59.5,60.4c0.1,0,0.1,0,0.2,0
		c16.2,0,31.1-5.9,41.9-16.7c11.1-11.1,17.2-26.6,17.2-43.7C1462.6,832.8,1437.6,807.4,1403.1,807.4z M1443.3,909.4
		c-10.2,10.2-24.3,15.8-39.8,15.8c-0.1,0-0.1,0-0.2,0c-32.7,0-56.5-24.1-56.5-57.4c0-33.3,23.7-57.4,56.3-57.4
		c32.7,0,56.5,24.1,56.5,57.4C1459.6,884.1,1453.8,898.9,1443.3,909.4z"/>
	<path class="st0" d="M1403.2,789.8c-21.8,0-41.8,7.9-56.2,22.1c-14.4,14.3-22.3,34.1-22.3,55.9c0,21.7,8,41.6,22.4,55.9
		c14.4,14.3,34.4,22.1,56.3,22.1c21.8,0,41.8-7.9,56.2-22.1c14.4-14.3,22.3-34.1,22.3-55.9c0-21.7-8-41.6-22.4-55.9
		C1445,797.7,1425.1,789.8,1403.2,789.8z M1403.4,942.8c-43.9,0-75.7-31.5-75.7-75s31.8-75,75.5-75c43.9,0,75.7,31.5,75.7,75
		S1447.2,942.8,1403.4,942.8z"/>
	<path class="st0" d="M1683.1,922.5v-46.3h78.2v-19.9h-78.2v-43h84.6v-19.9h-106.8v149h108.5v-19.9H1683.1z M1766.4,939.4h-102.5
		v-143h100.8v13.9h-84.6v49h78.2v13.9h-78.2v52.3h86.3V939.4z"/>
	<path class="st0" d="M216.5,738.5c40.9,0,68.1-27.3,68.1-69.5v-82.8h-33.2V669c0,23.7-13.2,39.6-34.9,39.6s-34.9-15.9-34.9-39.6
		v-82.8h-33.2V669C148.4,711.2,175.6,738.5,216.5,738.5z"/>
	<path class="st0" d="M342.2,720v-76.3l74.3,89.4h27.7V599.4c0-8.3-6.7-15-15-15H411v91.2l-74.3-89.4H309V735h18.2
		C335.5,735,342.2,728.3,342.2,720z"/>
	<rect x="470.4" y="586.2" class="st0" width="33.2" height="148.6"/>
	<path class="st0" d="M603.1,600c-34.4,0-59.3,25.4-59.3,60.4c0,35,25,60.4,59.5,60.4c0.2,0,0.5,0,0.7,0c9.3,0,18.1-2,26.2-5.9
		l1.7-0.8L605,680.3l12.6-9.7l27.1,34.3l1.2-1.2c10.7-10.9,16.6-26.3,16.6-43.2C662.6,625.4,637.6,600,603.1,600z M645,700.3
		l-26.8-33.9l-17.4,13.3l26.4,33.3c-7.4,3.3-15.4,4.8-23.8,4.8c-32.7,0-56.5-24.1-56.5-57.4c0-33.3,23.7-57.4,56.3-57.4
		c32.7,0,56.5,24.1,56.5,57.4C659.6,675.9,654.4,690,645,700.3z"/>
	<path class="st0" d="M659.4,604.6c-14.4-14.3-34.4-22.1-56.3-22.1c-21.8,0-41.8,7.9-56.2,22.1c-14.4,14.3-22.3,34.1-22.3,55.9
		c0,21.8,8,41.6,22.4,55.9c14.4,14.3,34.4,22.1,56.3,22.1c13.6,0,26.1-2.9,37.2-8.6l20.9,26.6l17.4-13.1l-20.5-26
		c15.1-14.4,23.5-34.5,23.5-56.9C681.8,638.8,673.8,618.9,659.4,604.6z M674.6,742.8l-12.6,9.5l-20.7-26.2l-1.1,0.6
		c-10.9,5.9-23.3,8.8-36.9,8.8c-43.9,0-75.7-31.5-75.7-75s31.8-75,75.5-75c43.9,0,75.7,31.5,75.7,75c0,22-8.4,41.7-23.5,55.6l-1,0.9
		L674.6,742.8z"/>
	<path class="st0" d="M767.2,738.5c39.6,0,65.2-26.7,65.2-67.9V586h-22.1v84.6c0,29.2-16.5,47.3-43.1,47.3
		c-26.6,0-43.2-18.1-43.2-47.3V586h-22.1v84.6C701.9,711.8,727.5,738.5,767.2,738.5z M704.9,589H721v81.6
		c0,30.6,18.1,50.3,46.2,50.3c28,0,46.1-19.7,46.1-50.3V589h16.1v81.6c0,39.4-24.4,64.9-62.2,64.9c-37.8,0-62.3-25.5-62.3-64.9V589z
		"/>
	<path class="st0" d="M965.6,606v-20H858.8v149.2h108.5v-20h-86.4V669h78.3v-20h-78.3v-43H965.6z M956.2,652v14h-78.3v52.2h86.4v14
		H861.8V589h100.8v14h-84.7v49H956.2z"/>
	<path class="st0" d="M174.3,530.3v-5.2c-1.8,0.7-4.8,1.1-7.9,1.1H158v-2.7h13.6v-5H158v-2.6h14.3v-5.3h-21v20.9h14.6
		C169.1,531.5,172.4,531.1,174.3,530.3z"/>
	<polygon class="st0" points="152.4,533.7 152.4,544.4 183,544.4 183,538.4 159.3,538.4 159.3,533.7 	"/>
	<polygon class="st0" points="182.5,524.4 186.5,524.4 186.5,517.8 182.5,517.8 182.5,510.2 175.7,510.2 175.7,535.6 182.5,535.6 	
		"/>
	<polygon class="st0" points="221,524.4 225,524.4 225,517.8 221,517.8 221,510.2 214.2,510.2 214.2,535.6 221,535.6 	"/>
	<polygon class="st0" points="190.9,533.7 190.9,544.4 221.5,544.4 221.5,538.4 197.8,538.4 197.8,533.7 	"/>
	<path class="st0" d="M212.7,530.3v-5.2c-1.8,0.7-4.8,1.1-7.9,1.1h-8.4v-2.7H210v-5h-13.6v-2.6h14.3v-5.3h-21v20.9h14.6
		C207.5,531.5,210.9,531.1,212.7,530.3z"/>
	<polygon class="st0" points="250.4,512.5 242.2,512.5 242.2,509.6 235.3,509.6 235.3,512.5 227.1,512.5 227.1,517.8 250.4,517.8 	
		"/>
	<polygon class="st0" points="259.5,524.8 263.5,524.8 263.5,518.2 259.5,518.2 259.5,510.3 252.7,510.3 252.7,535.8 259.5,535.8 	
		"/>
	<polygon class="st0" points="260,538.5 236.3,538.5 236.3,533.9 229.4,533.9 229.4,544.4 260,544.4 	"/>
	<path class="st0" d="M238.8,532.8c5.7,0,10.5-2.4,10.5-7s-4.8-7-10.5-7c-5.7,0-10.5,2.4-10.5,7
		C228.3,530.5,233.1,532.9,238.8,532.8z M238.7,523.6c2.4,0,4,1,4,2.2s-1.6,2.2-4,2.2c-2.4,0-4-1-4-2.2S236.3,523.7,238.7,523.6z"/>
	<path class="st0" d="M298.1,520.3V511h-19.7v6.2h12.8v3.1c0,9.9-4.5,16-12.8,16.1v6.4C290.4,542.8,298.1,534.2,298.1,520.3z"/>
	<rect x="303.3" y="510.2" class="st0" width="6.8" height="34.2"/>
	<path class="st0" d="M350.1,528h-13.9v-2.5H348v-15.3h-6.6v2.6h-17.2v-2.6h-6.6v15.3h11.8v2.5h-13.9v5.5h34.6V528z M324.3,520.4
		v-2.6h17.2v2.6H324.3z"/>
	<polygon class="st0" points="317.6,534.9 317.6,544.4 348.6,544.4 348.6,538.8 324.5,538.8 324.5,534.9 	"/>
	<path class="st0" d="M375,520.3V511h-19.7v6.2h12.8v3.1c0,9.9-4.5,16-12.8,16.1v6.4C367.3,542.8,375,534.2,375,520.3z"/>
	<rect x="380.3" y="510.2" class="st0" width="6.8" height="34.2"/>
	<polygon class="st0" points="427.1,537 413.1,537 413.1,533.2 425.5,533.2 425.5,527.3 401,527.3 401,524.9 425.1,524.9 425.1,511 
		394.3,511 394.3,517 418.5,517 418.5,519.3 394.4,519.3 394.4,533.2 406.3,533.2 406.3,537 392.5,537 392.5,543.2 427.1,543.2 	"/>
	<polygon class="st0" points="444.8,545.2 451.8,545.2 451.8,537.6 465.6,537.6 465.6,531.4 431,531.4 431,537.6 444.8,537.6 	"/>
	<path class="st0" d="M463.6,510.7H457v3.1h-17.4v-3.1H433v18h30.6V510.7z M457,522.7h-17.4v-3.1H457V522.7z"/>
	<path class="st0" d="M492.9,541.2V535c-2,1-5.6,1.6-8.8,1.6v0h-6.5v-6.7h11.3v-6.2h-11.3v-6.5h12.9V511h-19.6v31.8h13.2
		C487.3,542.8,490.8,542.2,492.9,541.2z"/>
	<polygon class="st0" points="495.9,544.4 502.7,544.4 502.7,510.3 495.9,510.3 495.9,522.9 491,522.9 491,529.2 495.9,529.2 	"/>
	<path class="st0" d="M536.4,529c9.5,0,15.7-3.6,15.7-9.4s-6.2-9.4-15.7-9.4s-15.7,3.6-15.7,9.4C520.7,525.4,526.9,529,536.4,529z
		 M536.5,516.1c4.9,0,8.6,1.2,8.6,3.5s-3.7,3.5-8.6,3.5c-4.9,0-8.6-1.3-8.6-3.5C527.9,517.3,531.6,516.1,536.5,516.1z"/>
	<polygon class="st0" points="526.5,545.2 533.2,545.2 533.2,537.2 539.8,537.2 539.8,545.2 546.5,545.2 546.5,537.2 553.7,537.2 
		553.9,537.2 553.9,531 519.3,531 519.3,537.2 526.5,537.2 	"/>
	<path class="st0" d="M582.1,541.2V535c-2,1-5.6,1.6-8.8,1.6h-7.1v-25.8h-7v32h14.1C576.5,542.8,580,542.2,582.1,541.2z"/>
	<rect x="583.9" y="510.2" class="st0" width="6.8" height="34.2"/>
	<polygon class="st0" points="622,534.7 628.8,534.7 628.8,511 598,511 598,517.4 622,517.4 622,523 598,523 598,529.3 622,529.3 	
		"/>
	<rect x="596.1" y="536.9" class="st0" width="34.6" height="6.3"/>
	<polygon class="st0" points="657.5,512.2 649.3,512.2 649.3,509.6 642.4,509.6 642.4,512.2 634.2,512.2 634.2,517.2 657.5,517.2 	
		"/>
	<polygon class="st0" points="666.7,523.6 670.7,523.6 670.7,517.2 666.7,517.2 666.7,510.3 659.9,510.3 659.9,530.5 666.7,530.5 	
		"/>
	<path class="st0" d="M646,518c-5.6,0-10.4,2.2-10.4,6.3c0,4.1,4.7,6.3,10.4,6.3c5.6,0,10.4-2.2,10.4-6.3S651.6,518,646,518z
		 M645.9,525.9c-2.4,0-4-0.6-4-1.6c0-0.9,1.6-1.6,4-1.6s4,0.6,4,1.6S648.3,525.9,645.9,525.9z"/>
	<path class="st0" d="M636.5,544.4h30.2v-12.7h-30.2V544.4z M643.2,536.8H660v2.4h-16.8V536.8z"/>
	<polygon class="st0" points="706,538.8 682,538.8 681.9,538.8 681.9,534.3 675,534.3 675,544.4 706,544.4 	"/>
	<rect x="673" y="527" class="st0" width="34.6" height="5.5"/>
	<path class="st0" d="M690.3,525.3c9,0,15.7-2.5,15.7-7.8s-6.6-7.8-15.7-7.8c-9,0-15.7,2.5-15.7,7.8S681.3,525.3,690.3,525.3z
		 M690.4,514.9c5.1,0,8.5,1,8.5,2.6c0,1.7-3.4,2.6-8.5,2.6s-8.5-0.9-8.5-2.6C681.9,515.9,685.3,514.9,690.4,514.9z"/>
	<path class="st0" d="M735.6,532.6l7,10.2l5.5-3.9L738,524.8c0.8-4,1.3-8.6,1.4-13.7l-6.9-0.2c-0.1,14.3-3.9,24.3-9.4,24.9v7
		C728.3,542.8,732.7,539.2,735.6,532.6z"/>
	<rect x="749" y="510.2" class="st0" width="6.8" height="34.2"/>
	<polygon class="st0" points="793.3,522.6 797.3,522.6 797.3,516.1 793.3,516.1 793.3,510.2 786.5,510.2 786.5,530.5 793.3,530.5 	
		"/>
	<path class="st0" d="M773,524.3l8.5,5.4l3.5-4.9l-9.2-5.7c0.3-0.9,0.5-1.8,0.6-2.8h7.4v-5.7H762v5.7h7.6c-0.6,3.8-3.4,7.4-8,7.7
		v6.1C766.5,530,770.5,527.6,773,524.3z"/>
	<polygon class="st0" points="793.3,544.8 793.3,531.8 763,531.8 763,537.6 786.4,537.6 786.4,544.8 	"/>
	<path class="st0" d="M824.1,529v-5.1c-2.1,0.9-5.6,1.2-8.8,1.2h-0.5V523h7.1v-4.9h-14.1v-2.7h13.7v-4.9h-20.2V523h6.9v2.1h-8.4v5.1
		h15.4C818.6,530.2,822,529.9,824.1,529z"/>
	<path class="st0" d="M826.2,533.2H809v-1.6h-6.7v12.8h30.6v-12.8h-6.7V533.2z M826.2,539.6H809v-1.7h17.2V539.6z"/>
	<polygon class="st0" points="832.8,510.2 832.8,510.2 826,510.2 826,530.3 832.8,530.3 	"/>
	<rect x="864.4" y="510.2" class="st0" width="6.8" height="34.2"/>
	<path class="st0" d="M862.7,541.2V535c-2,1-5.6,1.6-8.8,1.6h-7.1v-25.8h-7v32h14.1C857.1,542.8,860.6,542.2,862.7,541.2z"/>
	<polygon class="st0" points="908.8,529.3 912.8,529.3 912.8,522.7 908.8,522.7 908.8,510.2 902,510.2 902,544.4 908.8,544.4 	"/>
	<path class="st0" d="M900.4,541.2v-6c-2,0.9-5.6,1.5-8.8,1.5v-0.1h-6.8v-19.5h13V511h-19.9v31.8h13.2
		C894.4,542.8,898.3,542.2,900.4,541.2z"/>
	<path class="st0" d="M909.8,922.5h-86.4v-46.3h78.3v-19.9h-78.3v-43h84.7v-19.9H801.3v149h108.5V922.5z M906.8,939.4H804.3v-143
		h100.8v13.9h-84.7v49h78.3v13.9h-78.3v52.3h86.4V939.4z"/>
	<path class="st0" d="M1028.4,839.4c0,0,0-0.1,0-0.1c-1.4-18.3-16.6-28.8-42.3-28.8h-35.6v63.2h10.4l-0.4,0.4h27.3
		c3.8,0,7.3-0.2,10.7-0.7l0.7-0.8c18.8-3.3,29.3-14,29.3-30.5C1028.5,841.2,1028.5,840.3,1028.4,839.4L1028.4,839.4z M953.5,870.7
		v-57.2h32.6c9.6,0,17.6,1.5,23.9,4.5l-46.5,52.8H953.5z M1002.4,869l23.1-26.3C1025.3,856.4,1017.2,865.4,1002.4,869z"/>
	<polygon class="st0" points="953.7,924.3 982.7,891.3 953.7,891.3 	"/>
</g>
</svg>
