<?xml version="1.0" encoding="utf-8"?>
<!-- Generator: Adobe Illustrator 23.1.0, SVG Export Plug-In . SVG Version: 6.00 Build 0)  -->
<svg version="1.1" id="Layer_1" xmlns="http://www.w3.org/2000/svg" xmlns:xlink="http://www.w3.org/1999/xlink" x="0px" y="0px"
	 viewBox="0 0 760 937" style="enable-background:new 0 0 760 937;" xml:space="preserve">
<style type="text/css">
	.st0{fill:#FFFFFF;}
</style>
<path class="st0" d="M226.7,20.7v18.2h-45.4c-13,0-21.7,7.2-21.7,19.1c0,11.9,8.7,19.1,21.7,19.1h45.4v18.2h-45.4
	c-23.1,0-38.1-14.9-38.1-37.3s15-37.3,38.1-37.3H226.7z"/>
<path class="st0" d="M226.7,108.7v15.2l-49,40.7h50v18.2h-81.5v-15.2l49-40.7h-50v-18.2H226.7z"/>
<path class="st0" d="M226.7,215.4h-81.5v-18.2h81.5V215.4z"/>
<g>
	<path class="st0" d="M142.5,315.7l-12.6-16.5l15-12c-2-5.2-3-10.9-3-17C142,244,160.5,225,186,225c25.5,0,44.1,19,44.1,45.3
		c0,26.2-18.5,45.3-44.1,45.3c-11.2,0-21.6-3.9-29.5-10.9L142.5,315.7z M156.7,301.3l0.8,0.7c7.5,7.1,17.6,11,28.5,11
		c24.1,0,41.6-18,41.6-42.8c0-24.8-17.5-42.8-41.6-42.8s-41.6,18-41.6,42.8c0,6.1,1,11.8,3.1,16.9l0.3,0.9l-14.6,11.6l9.6,12.5
		L156.7,301.3z M186,297.3c-5.8,0-11.3-1.6-15.9-4.5l-1.5-0.9l14.5-11.5l-9.7-12.6l-13.9,11l-0.5-1.9c-0.5-2-0.7-4.1-0.7-6.6
		c0-15.7,11.6-27.1,27.7-27.1s27.7,11.4,27.7,27.1C213.7,285.9,202,297.3,186,297.3z M173,291.6c3.8,2.1,8.3,3.2,13,3.2
		c14.6,0,25.2-10.3,25.2-24.6c0-14.2-10.6-24.6-25.2-24.6s-25.2,10.3-25.2,24.6c0,1.5,0.1,2.8,0.3,4.1l12.8-10.1l12.7,16.6
		L173,291.6z"/>
</g>
<g>
	<path class="st0" d="M228,399.9h-46.7c-23.5,0-39.4-15.5-39.4-38.6c0-23.1,15.8-38.6,39.4-38.6H228v20.7h-46.7
		c-12.6,0-20.5,6.8-20.5,17.9c0,11,7.8,17.9,20.5,17.9H228V399.9z M181.3,325.3c-22.4,0-36.9,14.2-36.9,36.1
		c0,21.9,14.5,36.1,36.9,36.1h44.2v-15.7h-44.2c-13.9,0-23-8-23-20.4c0-12.4,9-20.4,23-20.4h44.2v-15.7H181.3z"/>
</g>
<g>
	<path class="st0" d="M162.3,474.8H144v-64h84v63.1h-18.3v-42.4h-14.1v38.9h-18.3v-38.9h-15V474.8z M146.5,472.3h13.3V429h20v38.9
		h13.3V429h19.1v42.4h13.3v-58.1h-79V472.3z"/>
</g>
<path class="st0" d="M60.2,18.1c24.7,0,42.8,18.5,42.8,43.6c0,22.4-13.5,37.4-30.7,40.7V84c7.8-1.9,14-10.2,14-21.9
	c0-14.8-10.9-25.8-26.1-25.8c-15.1,0-26.1,11-26.1,25.8c0,11.7,7.7,21.3,15.1,22.7v18.4c-16.4-2.5-31.8-18.9-31.8-41.5
	C17.4,36.6,35.5,18.1,60.2,18.1z"/>
<path class="st0" d="M60.2,110.1c24.7,0,42.8,18.7,42.8,44c0,25.3-18.1,44-42.8,44c-24.7,0-42.8-18.7-42.8-44
	C17.4,128.8,35.5,110.1,60.2,110.1z M60.2,179.9c15.4,0,26.4-11,26.4-25.8c0-14.8-11-25.8-26.4-25.8c-15.3,0-26.4,11-26.4,25.8
	C33.8,168.9,44.9,179.9,60.2,179.9z"/>
<path class="st0" d="M19.4,257.4l25.7-15.8v-14.5H19.4v-18.2h81.5v32.8c0,20.7-11,32.8-27.9,32.8c-11.2,0-19.8-5.3-24.3-14.9
	l-29.3,18.9V257.4z M61.2,227.1v13.8c0,9.6,4.1,15.4,11.8,15.4s11.8-5.8,11.8-15.4v-13.8H61.2z"/>
<path class="st0" d="M100.9,286.9v15.2l-49,40.7h50V361H20.4v-15.2l49-40.7h-50v-18.2H100.9z"/>
<g>
	<path class="st0" d="M36.5,438.2H18.2v-64h84v63.1H83.9v-42.4H69.8v38.9H51.5v-38.9h-15V438.2z M20.7,435.7H34v-43.3h20v38.9h13.3
		v-38.9h19.1v42.4h13.3v-58.1h-79V435.7z"/>
</g>
<g>
	<path class="st0" d="M18.2,521v-24.1l25.7-15.8v-12.6H18.2v-20.7h84v34.1c0,21-11.2,34.1-29.2,34.1c-11.2,0-19.9-5.1-24.8-14.3
		L18.2,521z M20.7,498.3v18.1L49.2,498l0.6,1.3c4.3,9.1,12.5,14.2,23.2,14.2c16.4,0,26.7-12.1,26.7-31.6v-31.6h-79v15.7h25.7v16.5
		L20.7,498.3z M73,497.8c-8.3,0-13.1-6.1-13.1-16.7v-15.1h26.1v15.1C86.1,491.7,81.3,497.8,73,497.8z M62.5,468.6v12.6
		c0,5.3,1.4,14.2,10.6,14.2s10.6-8.9,10.6-14.2v-12.6H62.5z"/>
</g>
<g>
	<path class="st0" d="M42.5,592.3c-15.5,0-26.4-14-26.4-34.2c0-21.2,11.9-36,29.5-36.9l1.3-0.1v21.1l-1.1,0.1
		c-7.3,0.9-11.9,7.4-11.9,17c0,6.8,3.3,11.7,7.8,11.7c5.4,0,7.9-4.4,10.6-19c3.7-19.6,12-28.3,27.1-28.3c14.6,0,24.8,14.1,24.8,34.3
		c0,18.7-11.7,33-27.8,34l-1.3,0.1v-21.2l1.1-0.2c6.7-1,10.3-6,10.3-13.9c0-7.4-2.7-12-7.1-12c-5,0-7,5.3-10.3,21.2
		C65.5,583.7,56.8,592.3,42.5,592.3z M44.5,523.9c-15.5,1.4-25.8,15-25.8,34.3c0,18.6,9.8,31.7,23.9,31.7c13.1,0,20.8-7.7,24.2-24.2
		c3.3-16.1,5.6-23.2,12.7-23.2c5.9,0,9.6,5.5,9.6,14.5c0,8.7-4.1,14.6-11.4,16.1v16.4c14.3-1.5,24.1-14.2,24.1-31.3
		c0-18.7-9.2-31.8-22.3-31.8c-13.9,0-21.2,7.9-24.7,26.3c-2.7,14.2-5.3,21-13,21c-5.9,0-10.3-6-10.3-14.2c0-10.4,5-17.7,13-19.3
		V523.9z"/>
</g>
<g>
	<path class="st0" d="M102.2,668.5H83.6V642H18.2v-20.7h65.4v-26.5h18.6V668.5z M86.1,666h13.6v-68.7H86.1v26.5H20.7v15.7h65.4V666z
		"/>
</g>
<g>
	<path class="st0" d="M60.2,759c-25.5,0-44.1-19-44.1-45.3c0-26.2,18.5-45.3,44.1-45.3s44.1,19,44.1,45.3
		C104.3,739.9,85.7,759,60.2,759z M60.2,671c-24.1,0-41.6,18-41.6,42.8s17.5,42.8,41.6,42.8s41.6-18,41.6-42.8S84.3,671,60.2,671z
		 M60.2,740.8c-16,0-27.7-11.4-27.7-27.1c0-15.7,11.6-27.1,27.7-27.1s27.7,11.4,27.7,27.1C87.9,729.4,76.2,740.8,60.2,740.8z
		 M60.2,689.2c-14.6,0-25.2,10.3-25.2,24.6c0,14.2,10.6,24.6,25.2,24.6s25.2-10.3,25.2-24.6C85.4,699.5,74.8,689.2,60.2,689.2z"/>
</g>
<g>
	<path class="st0" d="M103.2,843.9h-84v-17L66,788H18.2v-20.7h84v17l-46.8,38.9h47.8V843.9z M21.7,841.4h79v-15.7H48.5l51.2-42.5
		v-13.4h-79v15.7h52.2L21.7,828V841.4z"/>
</g>
<g>
	<path class="st0" d="M36.5,919.8H18.2v-64h84v63.1H83.9v-42.4H69.8v38.9H51.5v-38.9h-15V919.8z M20.7,917.3H34V874h20v38.9h13.3
		V874h19.1v42.4h13.3v-58.1h-79V917.3z"/>
</g>
<path class="st0" d="M535.4,413.3c19.8,14.9,77.4,51.2,182.6,62.3V937h28V147.3c0-9.7-6.2-18.2-15.3-21.2c-9.2-3-19.2,0.2-24.9,8
	L116,937h34.7L535.4,413.3z M718,164.7V273c-33.2,2.8-54.6-11.1-64.8-20.1L718,164.7z M636.6,275.5c13.5,11.4,37.6,25.9,72.6,25.9
	c2.9,0,5.8-0.1,8.8-0.3v59.4c-43.6-2.2-74.5-13.5-93.2-23.1c-10.1-5.1-17.7-10.3-23.1-14.4L636.6,275.5z M585.1,345.6
	c20.1,15.2,62.9,39.8,132.9,42.9v58.9c-59.8-6.7-102.1-22-127.6-34.1c-19.2-9.1-31.9-17.7-38.4-22.6L585.1,345.6z"/>
</svg>
