<?xml version="1.0" encoding="utf-8"?>
<!-- Generator: Adobe Illustrator 23.1.0, SVG Export Plug-In . SVG Version: 6.00 Build 0)  -->
<svg version="1.1" id="Layer_1" xmlns="http://www.w3.org/2000/svg" xmlns:xlink="http://www.w3.org/1999/xlink" x="0px" y="0px"
	 viewBox="0 0 509.4 509.4" style="enable-background:new 0 0 509.4 509.4;" xml:space="preserve">
<style type="text/css">
	.st0{fill:none;stroke:#FFFFFF;stroke-width:8;stroke-miterlimit:10;}
</style>
<path d="M457.7,504.9H52.3c-26,0-47.3-21.3-47.3-47.3V52.2c0-26,21.3-47.3,47.3-47.3h405.4c26,0,47.3,21.3,47.3,47.3v405.4
	C505,483.6,483.7,504.9,457.7,504.9z"/>
<polygon class="st0" points="95.8,73.9 414.1,73.9 386.5,398.1 255.4,435.9 125,398.6 "/>
<polygon class="st0" points="354.6,141.7 155.3,141.7 165.5,262.7 304.4,262.7 300.1,314.6 255,327 210.4,315.1 207.1,283.8 
	167.7,283.3 172,345.4 255,368.1 336.8,346.5 347.1,223.3 201.7,222.7 199.6,181.1 350.9,182.2 "/>
</svg>
