<?xml version="1.0" encoding="utf-8"?>
<!-- Generator: Adobe Illustrator 23.1.0, SVG Export Plug-In . SVG Version: 6.00 Build 0)  -->
<svg version="1.1" id="Layer_1" xmlns="http://www.w3.org/2000/svg" xmlns:xlink="http://www.w3.org/1999/xlink" x="0px" y="0px"
	 viewBox="0 0 509.4 509.4" style="enable-background:new 0 0 509.4 509.4;" xml:space="preserve">
<style type="text/css">
	.st0{fill:none;stroke:#FFFFFF;stroke-width:8;stroke-miterlimit:10;}
</style>
<path d="M457.4,504.7H52c-26,0-47.3-21.3-47.3-47.3V52C4.7,26,26,4.7,52,4.7h405.4c26,0,47.3,21.3,47.3,47.3v405.4
	C504.7,483.4,483.4,504.7,457.4,504.7z"/>
<polygon class="st0" points="413.9,74.7 95.5,74.7 124,398.3 254.9,434.7 386,398.8 "/>
<polygon class="st0" points="305.1,213.7 344.7,213.7 337.2,129.6 177.5,129.6 164.7,273.2 301.3,273.2 297,325.2 252,338 
	207,326.2 204.3,295.2 164.7,294.6 169,355.7 252,379.8 334.5,356.2 344.7,234.6 208.1,234.6 213.4,171.9 300.8,172.4 "/>
</svg>
