<?xml version="1.0" encoding="utf-8"?>
<!-- Generator: Adobe Illustrator 23.1.0, SVG Export Plug-In . SVG Version: 6.00 Build 0)  -->
<svg version="1.1" id="Layer_1" xmlns="http://www.w3.org/2000/svg" xmlns:xlink="http://www.w3.org/1999/xlink" x="0px" y="0px"
	 viewBox="0 0 509.4 509.4" style="enable-background:new 0 0 509.4 509.4;" xml:space="preserve">
<style type="text/css">
	.st0{fill:none;stroke:#FFFFFF;stroke-width:8;stroke-miterlimit:10;}
</style>
<path d="M457.4,504.7H52c-26,0-47.3-21.3-47.3-47.3V52C4.7,26,26,4.7,52,4.7h405.4c26,0,47.3,21.3,47.3,47.3v405.4
	C504.7,483.4,483.4,504.7,457.4,504.7z"/>
<g>
	<polygon class="st0" points="95.6,74.5 413.8,74.5 385,398.1 254.7,434.9 124.4,398.6 	"/>
	<polygon class="st0" points="155.4,140.7 158.6,180.2 310.2,180.2 307,221.9 161.8,221.9 165.5,260.3 302.2,260.3 299.6,311.6 
		254.7,324.9 209.3,312.1 207.2,280.6 167.7,281.1 173,343.6 254.9,365.5 336.4,343.6 354,140.7 	"/>
</g>
</svg>
